<?xml version="1.0" encoding="utf-8"?>
<!-- Generator: Adobe Illustrator 15.0.0, SVG Export Plug-In . SVG Version: 6.00 Build 0)  -->
<!DOCTYPE svg PUBLIC "-//W3C//DTD SVG 1.1//EN" "http://www.w3.org/Graphics/SVG/1.1/DTD/svg11.dtd">
<svg version="1.1" id="Layer_1" xmlns="http://www.w3.org/2000/svg" xmlns:xlink="http://www.w3.org/1999/xlink" x="0px" y="0px"
	 width="260px" height="40px" viewBox="0 0 260 40" enable-background="new 0 0 260 40" xml:space="preserve">
<g>
	<path fill="#FFFFFF" d="M33.538,2.469c2.048,0,3.513,0.934,4.391,2.8c6.021,9.667,10.579,17.008,13.673,22.024
		c3.094,5.018,4.745,7.742,4.955,8.176c0.083,0.199,0.125,0.367,0.125,0.5v0.249c-0.167,0.834-0.878,1.251-2.133,1.251h-4.641
		c-2.007,0-3.575-1.217-4.704-3.65c-3.512-5.666-6.272-10.101-8.279-13.3c-2.007-3.2-3.304-5.233-3.888-6.1
		c-0.712-0.7-1.297-1.05-1.757-1.05h-0.564c-1.129,0-2.531,1.6-4.203,4.801l-11.039,17.75c-0.92,1.033-2.07,1.55-3.45,1.55H7.447
		c-1.004,0-1.694-0.3-2.07-0.9l-0.063-0.351v-0.249c0-0.5,0.815-1.983,2.446-4.45c4.808-7.833,8.633-14.025,11.478-18.575
		c2.843-4.55,4.725-7.541,5.645-8.975c0.794-1,1.985-1.5,3.575-1.5H33.538z"/>
	<path fill="#FFFFFF" d="M45.423,3.093c0.48-0.416,1.181-0.625,2.101-0.625h45.409c0.836,0,1.515,0.192,2.039,0.575
		c0.522,0.384,0.784,0.942,0.784,1.675v2.55c0,0.634-0.241,1.167-0.721,1.6c-0.481,0.434-1.182,0.65-2.101,0.65H80.264
		c-2.969,0-4.641,0.45-5.018,1.35c-0.21,0.267-0.355,0.667-0.439,1.2c-0.084,0.534-0.125,1.184-0.125,1.95v21.2
		c0,0.633-0.241,1.166-0.721,1.599c-0.481,0.435-1.182,0.651-2.101,0.651h-3.262c-0.837,0-1.516-0.183-2.038-0.55
		c-0.523-0.367-0.784-0.934-0.784-1.7v-21.2c0-2.367-0.544-3.7-1.631-4c-0.669-0.333-1.986-0.5-3.951-0.5H47.524
		c-0.795,0-1.464-0.191-2.007-0.575c-0.543-0.383-0.815-0.941-0.815-1.675v-2.55C44.702,4.052,44.941,3.511,45.423,3.093z"/>
	<path fill="#FFFFFF" d="M112.752,5.068c2.634,2.3,4.62,4.05,5.959,5.25c1.337,1.2,2.09,1.85,2.258,1.95
		c0.752,0.4,1.421,0.6,2.007,0.6c1.296,0,2.968-1.066,5.018-3.199c3.554-3.233,6.124-5.433,7.714-6.6c0.92-0.4,1.882-0.6,2.885-0.6
		h6.523c1.338,0,2.007,0.367,2.007,1.1v0.05c0,0.633-1.129,1.85-3.387,3.65l-12.356,11.1c-0.418,0.634-0.627,1.2-0.627,1.701
		c0,0.933,1.255,2.366,3.764,4.3c0.167,0.232,2.299,2.167,6.397,5.799c4.14,3.668,6.209,5.584,6.209,5.751v0.4v0.049
		c0,0.733-0.669,1.101-2.007,1.101h-6.523c-2.049,0-3.909-0.9-5.582-2.7c-4.474-4.033-7.296-6.483-8.466-7.351
		c-0.586-0.233-1.129-0.35-1.631-0.35c-1.171,0-2.697,0.968-4.579,2.9c-2.175,1.968-3.931,3.518-5.269,4.649
		c-1.338,1.134-2.237,1.867-2.697,2.199c-0.962,0.435-1.944,0.651-2.948,0.651h-6.585c-1.38,0-2.07-0.384-2.07-1.149
		c0-0.567,1.087-1.734,3.262-3.501c3.93-3.466,6.931-6.132,9-8c2.07-1.866,3.271-2.982,3.606-3.35
		c0.209-0.267,0.345-0.517,0.408-0.75c0.063-0.232,0.094-0.45,0.094-0.649v-0.201c0-0.967-1.171-2.366-3.513-4.2
		c-0.25-0.266-1.401-1.3-3.449-3.1c-2.049-1.8-5.018-4.417-8.906-7.85c-0.209-0.267-0.345-0.5-0.408-0.7s-0.094-0.383-0.094-0.55
		c0-0.566,0.648-0.9,1.944-1h6.711C109.429,2.469,111.205,3.336,112.752,5.068z"/>
	<path fill="#FFFFFF" d="M150.917,3.093c0.48-0.416,1.182-0.625,2.102-0.625h36.314c5.478,0,9.262,2.1,11.353,6.3
		c0.377,1,0.564,2.033,0.564,3.1v0.35c0,1.3-0.282,2.525-0.847,3.675c-0.564,1.15-1.37,2.15-2.415,3s-2.342,1.517-3.889,2
		s-3.282,0.725-5.205,0.725h-22.83c-1.924,0-2.885-0.865-2.885-2.6v-1.85c0-1.733,0.961-2.6,2.885-2.6h17.75
		c3.93,0,6.146-0.283,6.647-0.851c0.711-0.399,1.066-0.966,1.066-1.699c0-1.067-0.773-1.8-2.32-2.2c-0.502-0.2-2.133-0.3-4.893-0.3
		h-19.631c-2.969,0-4.641,0.45-5.018,1.35c-0.335,0.567-0.502,1.133-0.502,1.7c-0.042,5.733-0.063,10.492-0.063,14.275
		s0,6.643,0,8.574c0,0.533-0.25,1.009-0.752,1.426s-1.192,0.625-2.069,0.625h-3.262c-0.837,0-1.517-0.191-2.038-0.575
		c-0.523-0.383-0.784-0.942-0.784-1.675v-30.5C150.196,4.052,150.436,3.511,150.917,3.093z"/>
	<path fill="#FFFFFF" d="M254.593,36.823c-0.481,0.43-1.183,0.646-2.101,0.646h-26.907c-6.523,0-12.043-2.083-16.559-6.25
		c-3.178-3.166-4.767-6.75-4.767-10.749v-1.002c0-5.199,2.612-9.599,7.841-13.199c3.972-2.533,8.467-3.8,13.484-3.8h26.907
		c0.836,0,1.515,0.192,2.038,0.575c0.522,0.384,0.783,0.942,0.783,1.675v2.55c0,0.634-0.24,1.167-0.721,1.6
		c-0.481,0.434-1.183,0.65-2.101,0.65h-21.388c-5.229,0-8.364,0.301-9.408,0.902c-1.338,0.3-3.011,1.235-5.018,2.806
		c-2.258,2.272-3.387,4.528-3.387,6.766c0,2.975,1.756,5.681,5.269,8.12c2.299,1.537,5.748,2.305,10.349,2.305h23.583
		c0.794,0,1.463,0.19,2.007,0.571c0.542,0.382,0.814,0.935,0.814,1.664v2.58C255.313,35.863,255.073,36.394,254.593,36.823z"/>
</g>
</svg>
