<?xml version="1.0" encoding="utf-8"?>
<!-- Generator: Adobe Illustrator 15.0.0, SVG Export Plug-In . SVG Version: 6.00 Build 0)  -->
<!DOCTYPE svg PUBLIC "-//W3C//DTD SVG 1.1//EN" "http://www.w3.org/Graphics/SVG/1.1/DTD/svg11.dtd">
<svg version="1.1" id="Layer_1" xmlns="http://www.w3.org/2000/svg" xmlns:xlink="http://www.w3.org/1999/xlink" x="0px" y="0px"
	 width="1280px" height="375px" viewBox="0 0 1280 375" enable-background="new 0 0 1280 375" xml:space="preserve">
<linearGradient id="SVGID_1_" gradientUnits="userSpaceOnUse" x1="1" y1="188" x2="1281" y2="188">
	<stop  offset="0" style="stop-color:#00C853"/>
	<stop  offset="0.5515" style="stop-color:#23E873"/>
	<stop  offset="1" style="stop-color:#00C853"/>
</linearGradient>
<rect x="1" fill="url(#SVGID_1_)" width="1280" height="376"/>
<g opacity="0.5">
	<path fill="#FFFFFF" d="M71,61c0,2.761-2.239,5-5,5H29c-2.761,0-5-2.239-5-5V24c0-2.761,2.239-5,5-5h37c2.761,0,5,2.239,5,5V61z"/>
	<path fill="#FFFFFF" d="M135,108c0,2.762-2.238,5-5,5H93c-2.761,0-5-2.238-5-5V71c0-2.761,2.239-5,5-5h37c2.762,0,5,2.239,5,5V108z
		"/>
	<g>
		<g>
			<path fill="#FFFFFF" d="M319.55,286c3.58,14,5.487,28.752,5.487,43.92c0,98.029-79.47,177.487-177.5,177.487
				c-98.031,0-177.5-79.478-177.5-177.507c0-98.031,79.469-177.503,177.5-177.503c44.93,0,85.953,16.7,117.221,44.224l5.098-8.831
				c-32.835-28.289-75.578-45.396-122.318-45.396c-103.553,0-187.5,83.945-187.5,187.5c0,103.553,83.947,187.5,187.5,187.5
				s187.5-83.922,187.5-187.475c0-15.137-1.806-29.92-5.192-43.92H319.55z"/>
			<path fill="#FFFFFF" d="M-22.267,331c0.096-94,76.168-169.824,169.997-169.824c93.83,0,169.902,75.824,169.998,169.824h2.501
				c-0.096-95-77.287-172.323-172.498-172.323S-24.671,236-24.767,331H-22.267z"/>
		</g>
		<path fill="#FFFFFF" d="M205,176.168v16.133c54.091,22.657,92.092,76.092,92.092,138.408c0,82.842-67.156,150-150,150
			c-82.843,0-150-67.158-150-150C-2.908,247.896,64.2,180.76,147,180.71v-15c-91.084,0.05-164.908,73.903-164.908,164.999
			c0,91.127,73.873,165,165,165c91.126,0,165-73.873,165-165C312.092,259.96,267.56,199.621,205,176.168z"/>
		<path fill="#FFFFFF" d="M271.236,288.855c17.165,52.045-0.789,111.289-47.992,144.341
			c-57.681,40.389-137.184,26.37-177.573-31.312C5.282,344.204,19.301,264.701,76.982,224.313
			c14.018-9.815,29.325-16.408,45.045-19.951l-0.66-7.542c-16.993,3.694-33.551,10.75-48.688,21.35
			C11.605,260.934-3.237,345.112,39.528,406.187c42.765,61.075,126.943,75.918,188.018,33.153
			c50.627-35.45,69.485-99.355,50.097-154.971L271.236,288.855z"/>
		<path fill="#FFFFFF" d="M147.537,209.895c-66.274,0-120,53.726-120,120s53.726,120,120,120s120-53.726,120-120
			S213.812,209.895,147.537,209.895z M147.537,434.895c-57.99,0-105-47.01-105-105s47.01-105,105-105s105,47.01,105,105
			S205.527,434.895,147.537,434.895z"/>
	</g>
	<g>
		<g>
			<g>
				<circle fill="#FFFFFF" cx="440.777" cy="111.895" r="4"/>
				<circle fill="#FFFFFF" cx="457.777" cy="111.895" r="4"/>
				<circle fill="#FFFFFF" cx="440.777" cy="124.895" r="4"/>
				<circle fill="#FFFFFF" cx="457.777" cy="124.895" r="4"/>
				<circle fill="#FFFFFF" cx="440.777" cy="139.895" r="4"/>
				<circle fill="#FFFFFF" cx="457.777" cy="139.895" r="4"/>
				<circle fill="#FFFFFF" cx="440.777" cy="152.895" r="4"/>
				<circle fill="#FFFFFF" cx="457.777" cy="152.895" r="4"/>
			</g>
			<circle fill="#FFFFFF" cx="440.777" cy="166.895" r="4"/>
			<circle fill="#FFFFFF" cx="457.777" cy="166.895" r="4"/>
			<circle fill="#FFFFFF" cx="440.777" cy="179.895" r="4"/>
			<circle fill="#FFFFFF" cx="457.777" cy="179.895" r="4"/>
			<circle fill="#FFFFFF" cx="440.777" cy="194.895" r="4"/>
			<circle fill="#FFFFFF" cx="457.777" cy="194.895" r="4"/>
			<circle fill="#FFFFFF" cx="440.777" cy="207.895" r="4"/>
			<circle fill="#FFFFFF" cx="457.777" cy="207.895" r="4"/>
		</g>
		<g>
			<g>
				<circle fill="#FFFFFF" cx="440.777" cy="221.895" r="4"/>
				<circle fill="#FFFFFF" cx="457.777" cy="221.895" r="4"/>
				<circle fill="#FFFFFF" cx="440.777" cy="234.895" r="4"/>
				<circle fill="#FFFFFF" cx="457.777" cy="234.895" r="4"/>
				<circle fill="#FFFFFF" cx="440.777" cy="249.895" r="4"/>
				<circle fill="#FFFFFF" cx="457.777" cy="249.895" r="4"/>
				<circle fill="#FFFFFF" cx="440.777" cy="262.895" r="4"/>
				<circle fill="#FFFFFF" cx="457.777" cy="262.895" r="4"/>
			</g>
			<circle fill="#FFFFFF" cx="440.777" cy="276.895" r="4"/>
			<circle fill="#FFFFFF" cx="457.777" cy="276.895" r="4"/>
			<circle fill="#FFFFFF" cx="440.777" cy="289.895" r="4"/>
			<circle fill="#FFFFFF" cx="457.777" cy="289.895" r="4"/>
			<circle fill="#FFFFFF" cx="440.777" cy="304.895" r="4"/>
			<circle fill="#FFFFFF" cx="457.777" cy="304.895" r="4"/>
			<circle fill="#FFFFFF" cx="440.777" cy="317.895" r="4"/>
			<circle fill="#FFFFFF" cx="457.777" cy="317.895" r="4"/>
		</g>
	</g>
	<g>
		<g>
			<g>
				<circle fill="#FFFFFF" cx="489.777" cy="36.895" r="4"/>
				<circle fill="#FFFFFF" cx="506.777" cy="36.895" r="4"/>
				<circle fill="#FFFFFF" cx="489.777" cy="49.895" r="4"/>
				<circle fill="#FFFFFF" cx="506.777" cy="49.895" r="4"/>
				<circle fill="#FFFFFF" cx="489.777" cy="64.895" r="4"/>
				<circle fill="#FFFFFF" cx="506.777" cy="64.895" r="4"/>
				<circle fill="#FFFFFF" cx="489.777" cy="77.895" r="4"/>
				<circle fill="#FFFFFF" cx="506.777" cy="77.895" r="4"/>
			</g>
			<circle fill="#FFFFFF" cx="489.777" cy="91.895" r="4"/>
			<circle fill="#FFFFFF" cx="506.777" cy="91.895" r="4"/>
			<circle fill="#FFFFFF" cx="489.777" cy="104.895" r="4"/>
			<circle fill="#FFFFFF" cx="506.777" cy="104.895" r="4"/>
			<circle fill="#FFFFFF" cx="489.777" cy="119.895" r="4"/>
			<circle fill="#FFFFFF" cx="506.777" cy="119.895" r="4"/>
			<circle fill="#FFFFFF" cx="489.777" cy="132.895" r="4"/>
			<circle fill="#FFFFFF" cx="506.777" cy="132.895" r="4"/>
		</g>
		<g>
			<g>
				<circle fill="#FFFFFF" cx="489.777" cy="146.895" r="4"/>
				<circle fill="#FFFFFF" cx="506.777" cy="146.895" r="4"/>
				<circle fill="#FFFFFF" cx="489.777" cy="159.895" r="4"/>
				<circle fill="#FFFFFF" cx="506.777" cy="159.895" r="4"/>
				<circle fill="#FFFFFF" cx="489.777" cy="174.895" r="4"/>
				<circle fill="#FFFFFF" cx="506.777" cy="174.895" r="4"/>
				<circle fill="#FFFFFF" cx="489.777" cy="187.895" r="4"/>
				<circle fill="#FFFFFF" cx="506.777" cy="187.895" r="4"/>
			</g>
			<circle fill="#FFFFFF" cx="489.777" cy="201.895" r="4"/>
			<circle fill="#FFFFFF" cx="506.777" cy="201.895" r="4"/>
			<circle fill="#FFFFFF" cx="489.777" cy="214.895" r="4"/>
			<circle fill="#FFFFFF" cx="506.777" cy="214.895" r="4"/>
			<circle fill="#FFFFFF" cx="489.777" cy="229.895" r="4"/>
			<circle fill="#FFFFFF" cx="506.777" cy="229.895" r="4"/>
			<circle fill="#FFFFFF" cx="489.777" cy="242.895" r="4"/>
			<circle fill="#FFFFFF" cx="506.777" cy="242.895" r="4"/>
		</g>
	</g>
	<g>
		<g>
			<path fill="#FFFFFF" d="M633.523,159c-3.579-14-5.486-28.857-5.486-44.025c0-98.029,79.47-177.54,177.5-177.54
				c98.031,0,177.5,79.451,177.5,177.48c0,98.031-79.469,177.489-177.5,177.489c-44.93,0-85.953-16.706-117.221-44.229l-5.098,8.827
				c32.835,28.289,75.578,45.395,122.318,45.395c103.553,0,187.5-83.946,187.5-187.501c0-103.553-83.947-187.5-187.5-187.5
				s-187.5,84.027-187.5,187.58c0,15.137,1.806,30.025,5.191,44.025H633.523z"/>
			<path fill="#FFFFFF" d="M975.341,114c-0.096,94-76.168,169.824-169.997,169.824c-93.83,0-169.902-75.824-169.998-169.824h-2.501
				c0.096,95,77.287,172.323,172.498,172.323S977.745,209,977.841,114H975.341z"/>
		</g>
		<path fill="#FFFFFF" d="M748,268.621v-16.133c-54-22.657-92.055-76.092-92.055-138.408c0-82.842,67.175-150,150.019-150
			c82.842,0,149.972,67.158,149.972,150c0,82.813-66.936,149.949-149.936,149.999v15c91-0.05,164.944-73.903,164.944-164.999
			c0-91.127-73.854-165-164.98-165s-165.028,73.873-165.028,165C640.936,184.829,686,245.168,748,268.621z"/>
		<path fill="#FFFFFF" d="M681.838,155.934c-17.164-52.045,0.789-111.289,47.992-144.341
			c57.682-40.389,137.184-26.37,177.572,31.312c40.39,57.681,26.371,137.184-31.311,177.572
			c-14.018,9.815-29.324,16.408-45.045,19.951l0.66,7.542c16.992-3.694,33.551-10.75,48.688-21.35
			c61.074-42.765,75.917-126.943,33.152-188.018C870.781-22.473,786.604-37.315,725.528,5.449
			c-50.628,35.45-69.485,99.355-50.097,154.971L681.838,155.934z"/>
		<path fill="#FFFFFF" d="M805.537,234.895c66.274,0,120-53.726,120-120s-53.726-120-120-120s-120,53.726-120,120
			S739.263,234.895,805.537,234.895z M805.537,9.895c57.99,0,105,47.01,105,105s-47.01,105-105,105s-105-47.01-105-105
			S747.547,9.895,805.537,9.895z"/>
	</g>
	
		<rect x="1102" y="-104" transform="matrix(0.8192 0.5736 -0.5736 0.8192 215.9832 -670.0135)" fill="#FFFFFF" width="137" height="223"/>
	<polygon fill="#FFFFFF" points="1099.444,297 1084.444,270.5 1099.444,244 1129.444,244 1144.444,270.5 1129.444,297 	"/>
	<polygon fill="#FFFFFF" points="1159.444,271 1144.444,244.5 1159.444,218 1189.444,218 1204.444,244.5 1189.444,271 	"/>
	<polygon fill="#FFFFFF" points="1154.444,333 1139.444,306.5 1154.444,280 1184.444,280 1199.444,306.5 1184.444,333 	"/>
</g>
<rect fill="none" width="1280" height="376"/>
<linearGradient id="SVGID_2_" gradientUnits="userSpaceOnUse" x1="1" y1="188" x2="1281" y2="188">
	<stop  offset="0" style="stop-color:#00C853"/>
	<stop  offset="0.0853" style="stop-color:#02C151"/>
	<stop  offset="0.4522" style="stop-color:#0BA74A"/>
	<stop  offset="0.6727" style="stop-color:#0E9E48"/>
	<stop  offset="0.7684" style="stop-color:#0CA349"/>
	<stop  offset="0.8842" style="stop-color:#07B24D"/>
	<stop  offset="1" style="stop-color:#00C853"/>
</linearGradient>
<rect x="1" y="98" opacity="0.3" fill="url(#SVGID_2_)" width="1280" height="180"/>
<rect fill="none" width="1280" height="376"/>
<rect fill="none" width="1281" height="376"/>
</svg>
