<?xml version="1.0" encoding="utf-8"?>
<!-- Generator: Adobe Illustrator 15.0.0, SVG Export Plug-In . SVG Version: 6.00 Build 0)  -->
<!DOCTYPE svg PUBLIC "-//W3C//DTD SVG 1.1//EN" "http://www.w3.org/Graphics/SVG/1.1/DTD/svg11.dtd">
<svg version="1.1" id="Layer_1" xmlns="http://www.w3.org/2000/svg" xmlns:xlink="http://www.w3.org/1999/xlink" x="0px" y="0px"
	 width="265px" height="600px" viewBox="0 0 265 600" enable-background="new 0 0 265 600" xml:space="preserve">
<g>
	<path fill="#FFFFFF" d="M44.48,101.584V79.893L25.602,50.045h12.199L49.93,70.436l11.883-20.391h11.988L54.852,79.963v21.621H44.48
		z"/>
	<path fill="#FFFFFF" d="M76.859,76.131c0-5.25,0.785-9.656,2.355-13.219c1.172-2.625,2.771-4.98,4.799-7.066
		c2.027-2.086,4.248-3.633,6.662-4.641c3.211-1.359,6.914-2.039,11.109-2.039c7.594,0,13.67,2.355,18.229,7.066
		s6.838,11.262,6.838,19.652c0,8.32-2.262,14.831-6.785,19.529c-4.523,4.699-10.57,7.049-18.141,7.049
		c-7.664,0-13.758-2.338-18.281-7.014C79.121,90.773,76.859,84.334,76.859,76.131z M87.582,75.779c0,5.836,1.348,10.26,4.043,13.271
		c2.695,3.012,6.117,4.518,10.266,4.518s7.553-1.494,10.213-4.482c2.66-2.988,3.99-7.471,3.99-13.447
		c0-5.906-1.295-10.313-3.885-13.219c-2.59-2.906-6.029-4.359-10.318-4.359s-7.747,1.471-10.371,4.412
		C88.895,65.414,87.582,69.85,87.582,75.779z"/>
	<path fill="#FFFFFF" d="M134.902,50.045h10.406v27.914c0,4.43,0.129,7.301,0.387,8.613c0.445,2.109,1.506,3.803,3.182,5.08
		c1.676,1.278,3.967,1.916,6.873,1.916c2.953,0,5.18-0.603,6.68-1.811c1.5-1.207,2.402-2.689,2.707-4.447s0.457-4.676,0.457-8.754
		V50.045H176v27.07c0,6.188-0.281,10.559-0.844,13.113c-0.563,2.555-1.6,4.711-3.111,6.469s-3.533,3.159-6.064,4.201
		s-5.836,1.564-9.914,1.564c-4.922,0-8.654-0.568-11.197-1.705s-4.553-2.613-6.029-4.43c-1.477-1.816-2.449-3.721-2.918-5.713
		c-0.68-2.953-1.02-7.313-1.02-13.078V50.045z"/>
	<path fill="#FFFFFF" d="M187.004,101.584V50.045h21.902c5.508,0,9.51,0.463,12.006,1.389c2.496,0.926,4.494,2.572,5.994,4.939
		c1.5,2.368,2.25,5.075,2.25,8.121c0,3.867-1.137,7.061-3.41,9.58c-2.273,2.52-5.672,4.108-10.195,4.764
		c2.25,1.313,4.107,2.754,5.572,4.324c1.465,1.57,3.439,4.359,5.924,8.367l6.293,10.055h-12.445l-7.523-11.215
		c-2.672-4.008-4.5-6.533-5.484-7.576c-0.984-1.042-2.027-1.758-3.129-2.145s-2.848-0.58-5.238-0.58h-2.109v21.516H187.004z
		 M197.41,71.842h7.699c4.992,0,8.109-0.211,9.352-0.633s2.215-1.148,2.918-2.18c0.703-1.031,1.055-2.32,1.055-3.867
		c0-1.734-0.463-3.134-1.389-4.201c-0.926-1.066-2.232-1.74-3.92-2.021c-0.844-0.117-3.375-0.176-7.594-0.176h-8.121V71.842z"/>
</g>
<g>
	<path fill="#FFFFFF" d="M43.141,134.146h-3.821l-1.519-3.952h-6.955l-1.436,3.952h-3.727l6.776-17.398h3.715L43.141,134.146z
		 M36.673,127.262l-2.397-6.456l-2.35,6.456H36.673z"/>
	<path fill="#FFFFFF" d="M44.992,116.748h6.42c1.448,0,2.552,0.111,3.311,0.332c1.021,0.301,1.895,0.835,2.623,1.602
		c0.728,0.768,1.282,1.707,1.662,2.819c0.379,1.111,0.569,2.482,0.569,4.112c0,1.432-0.178,2.666-0.534,3.703
		c-0.436,1.266-1.057,2.291-1.863,3.074c-0.609,0.593-1.432,1.056-2.469,1.389c-0.775,0.245-1.812,0.368-3.109,0.368h-6.61V116.748z
		 M48.505,119.69v11.524h2.623c0.981,0,1.689-0.056,2.125-0.167c0.569-0.142,1.042-0.383,1.418-0.724s0.683-0.9,0.92-1.679
		s0.356-1.842,0.356-3.187c0-1.345-0.119-2.377-0.356-3.098c-0.237-0.72-0.57-1.282-0.997-1.685
		c-0.427-0.404-0.969-0.677-1.626-0.819c-0.491-0.11-1.452-0.166-2.884-0.166H48.505z"/>
	<path fill="#FFFFFF" d="M66.995,134.146l-6.219-17.398h3.81l4.403,12.876l4.26-12.876h3.727l-6.23,17.398H66.995z"/>
	<path fill="#FFFFFF" d="M78.768,134.146v-17.398h12.9v2.943h-9.387v3.857h8.734v2.932h-8.734v4.735H92v2.931H78.768z"/>
	<path fill="#FFFFFF" d="M94.991,134.146v-17.398h7.394c1.859,0,3.21,0.156,4.053,0.469c0.843,0.313,1.517,0.868,2.023,1.667
		c0.506,0.799,0.76,1.713,0.76,2.742c0,1.306-0.384,2.384-1.151,3.234c-0.768,0.851-1.915,1.387-3.441,1.608
		c0.759,0.443,1.386,0.93,1.881,1.459c0.494,0.53,1.161,1.472,2,2.825l2.125,3.394h-4.201l-2.54-3.786
		c-0.902-1.353-1.519-2.206-1.852-2.558c-0.332-0.352-0.685-0.593-1.056-0.724c-0.372-0.13-0.961-0.196-1.769-0.196h-0.712v7.263
		H94.991z M98.504,124.105h2.599c1.685,0,2.737-0.071,3.157-0.214c0.419-0.142,0.748-0.387,0.985-0.736
		c0.237-0.348,0.356-0.783,0.356-1.305c0-0.585-0.156-1.058-0.469-1.418c-0.313-0.36-0.754-0.587-1.323-0.682
		c-0.285-0.04-1.14-0.06-2.563-0.06h-2.742V124.105z"/>
	<path fill="#FFFFFF" d="M116.448,134.146V119.69h-5.163v-2.943h13.826v2.943h-5.15v14.455H116.448z"/>
	<path fill="#FFFFFF" d="M127.271,134.146v-17.398h3.513v17.398H127.271z"/>
	<path fill="#FFFFFF" d="M133.241,128.484l3.418-0.332c0.205,1.147,0.623,1.99,1.252,2.528s1.478,0.807,2.546,0.807
		c1.131,0,1.983-0.239,2.557-0.718c0.574-0.479,0.861-1.039,0.861-1.679c0-0.411-0.121-0.761-0.362-1.05
		c-0.241-0.289-0.663-0.54-1.264-0.753c-0.412-0.143-1.35-0.396-2.813-0.76c-1.883-0.467-3.204-1.04-3.964-1.721
		c-1.067-0.958-1.602-2.125-1.602-3.501c0-0.886,0.251-1.715,0.754-2.486c0.502-0.771,1.226-1.359,2.172-1.763
		c0.945-0.403,2.086-0.605,3.424-0.605c2.184,0,3.827,0.479,4.931,1.436s1.684,2.235,1.738,3.833l-3.513,0.154
		c-0.15-0.894-0.473-1.537-0.967-1.928c-0.495-0.392-1.236-0.587-2.226-0.587c-1.021,0-1.819,0.209-2.397,0.629
		c-0.372,0.269-0.558,0.629-0.558,1.08c0,0.411,0.174,0.764,0.522,1.056c0.442,0.372,1.519,0.759,3.228,1.163
		c1.709,0.403,2.974,0.821,3.792,1.252c0.819,0.431,1.46,1.021,1.923,1.768c0.463,0.748,0.694,1.672,0.694,2.771
		c0,0.997-0.277,1.93-0.831,2.801c-0.554,0.87-1.337,1.517-2.35,1.94c-1.013,0.423-2.275,0.635-3.786,0.635
		c-2.199,0-3.889-0.508-5.067-1.525S133.471,130.431,133.241,128.484z"/>
	<path fill="#FFFFFF" d="M150.343,134.146v-17.398h12.9v2.943h-9.388v3.857h8.734v2.932h-8.734v4.735h9.72v2.931H150.343z"/>
	<path fill="#FFFFFF" d="M166.506,134.146v-17.398h5.258l3.156,11.868l3.121-11.868h5.27v17.398h-3.264V120.45l-3.453,13.695h-3.383
		l-3.441-13.695v13.695H166.506z"/>
	<path fill="#FFFFFF" d="M186.801,134.146v-17.398h12.9v2.943h-9.388v3.857h8.734v2.932h-8.734v4.735h9.72v2.931H186.801z"/>
	<path fill="#FFFFFF" d="M203.047,134.146v-17.398h3.418l7.121,11.618v-11.618h3.264v17.398h-3.525l-7.014-11.346v11.346H203.047z"
		/>
	<path fill="#FFFFFF" d="M224.48,134.146V119.69h-5.162v-2.943h13.826v2.943h-5.151v14.455H224.48z"/>
</g>
<g>
	<path fill="#FFFFFF" d="M45.911,168.354l5.647,1.752c-0.866,3.08-2.306,5.367-4.319,6.862c-2.014,1.495-4.568,2.243-7.664,2.243
		c-3.83,0-6.978-1.28-9.444-3.84c-2.466-2.56-3.699-6.061-3.699-10.5c0-4.697,1.239-8.345,3.718-10.943s5.738-3.898,9.779-3.898
		c3.528,0,6.394,1.02,8.598,3.061c1.312,1.207,2.295,2.939,2.952,5.197l-5.765,1.348c-0.341-1.463-1.053-2.618-2.135-3.465
		c-1.082-0.847-2.397-1.271-3.945-1.271c-2.138,0-3.873,0.75-5.204,2.252c-1.332,1.501-1.997,3.934-1.997,7.295
		c0,3.568,0.656,6.109,1.968,7.623c1.312,1.514,3.017,2.271,5.115,2.271c1.548,0,2.879-0.481,3.994-1.444
		S45.425,170.42,45.911,168.354z"/>
	<path fill="#FFFFFF" d="M55.375,164.793c0-2.875,0.439-5.287,1.318-7.238c0.656-1.437,1.551-2.727,2.686-3.869
		c1.134-1.142,2.377-1.989,3.729-2.541c1.797-0.744,3.869-1.116,6.217-1.116c4.25,0,7.65,1.29,10.202,3.869
		c2.551,2.579,3.827,6.167,3.827,10.76c0,4.556-1.266,8.12-3.797,10.693c-2.532,2.573-5.916,3.86-10.152,3.86
		c-4.289,0-7.7-1.28-10.231-3.84C56.64,172.811,55.375,169.285,55.375,164.793z M61.375,164.601c0,3.195,0.754,5.618,2.263,7.267
		c1.508,1.649,3.423,2.474,5.745,2.474s4.227-0.818,5.715-2.455s2.233-4.09,2.233-7.363c0-3.234-0.725-5.646-2.174-7.238
		c-1.449-1.591-3.374-2.387-5.774-2.387s-4.335,0.805-5.804,2.416C62.11,158.925,61.375,161.354,61.375,164.601z"/>
	<path fill="#FFFFFF" d="M87.858,150.51h5.824v15.284c0,2.425,0.072,3.998,0.217,4.716c0.249,1.155,0.842,2.083,1.78,2.782
		c0.938,0.7,2.22,1.049,3.847,1.049c1.653,0,2.898-0.331,3.738-0.992c0.839-0.661,1.344-1.472,1.515-2.435
		c0.17-0.962,0.255-2.56,0.255-4.793V150.51h5.824v14.822c0,3.388-0.158,5.781-0.472,7.18c-0.315,1.399-0.896,2.58-1.742,3.542
		c-0.846,0.962-1.977,1.729-3.394,2.3c-1.417,0.571-3.266,0.857-5.548,0.857c-2.755,0-4.844-0.312-6.267-0.934
		c-1.423-0.623-2.548-1.431-3.375-2.426c-0.826-0.994-1.371-2.037-1.633-3.128c-0.381-1.617-0.571-4.004-0.571-7.161V150.51z"/>
	<path fill="#FFFFFF" d="M117.154,178.729v-27.989h5.824v23.234h14.481v4.754H117.154z"/>
	<path fill="#FFFFFF" d="M141.591,150.51h10.644c2.4,0,4.23,0.18,5.49,0.539c1.691,0.488,3.141,1.354,4.348,2.599
		c1.207,1.245,2.125,2.769,2.755,4.572c0.629,1.803,0.944,4.026,0.944,6.67c0,2.323-0.295,4.325-0.886,6.006
		c-0.722,2.053-1.751,3.715-3.089,4.985c-1.01,0.963-2.374,1.713-4.093,2.252c-1.285,0.398-3.004,0.597-5.154,0.597h-10.959V150.51z
		 M147.414,155.284v18.691h4.349c1.626,0,2.8-0.09,3.521-0.27c0.944-0.231,1.729-0.623,2.352-1.174s1.131-1.459,1.524-2.724
		s0.591-2.987,0.591-5.168s-0.197-3.856-0.591-5.024c-0.394-1.167-0.944-2.079-1.652-2.733c-0.708-0.654-1.607-1.097-2.695-1.328
		c-0.813-0.18-2.407-0.27-4.781-0.27H147.414z"/>
	<path fill="#FFFFFF" d="M181.925,150.51h11.529c2.282,0,3.984,0.093,5.106,0.279c1.121,0.186,2.125,0.574,3.01,1.165
		c0.886,0.59,1.623,1.376,2.214,2.358c0.59,0.982,0.885,2.083,0.885,3.301c0,1.322-0.363,2.535-1.092,3.638
		c-0.728,1.104-1.715,1.932-2.961,2.483c1.758,0.5,3.108,1.354,4.053,2.56c0.944,1.207,1.417,2.625,1.417,4.254
		c0,1.284-0.305,2.531-0.915,3.744c-0.609,1.213-1.443,2.182-2.499,2.907s-2.357,1.171-3.905,1.338
		c-0.971,0.103-3.313,0.167-7.023,0.192h-9.818V150.51z M187.749,155.207v6.526h3.816c2.27,0,3.68-0.032,4.23-0.096
		c0.996-0.116,1.78-0.453,2.352-1.011c0.57-0.558,0.855-1.293,0.855-2.204c0-0.873-0.246-1.582-0.738-2.127
		c-0.491-0.545-1.223-0.876-2.193-0.991c-0.577-0.064-2.236-0.097-4.978-0.097H187.749z M187.749,166.429v7.546h5.391
		c2.099,0,3.43-0.058,3.994-0.173c0.865-0.154,1.57-0.529,2.115-1.126c0.544-0.597,0.816-1.396,0.816-2.397
		c0-0.847-0.21-1.565-0.63-2.156c-0.42-0.59-1.026-1.02-1.819-1.29c-0.794-0.27-2.516-0.404-5.165-0.404H187.749z"/>
	<path fill="#FFFFFF" d="M211.004,178.729v-28.22h21.387v4.774h-15.563v6.256h14.48v4.754h-14.48v7.681h16.113v4.754H211.004z"/>
</g>
<g>
	<path fill="#FFFFFF" d="M25.956,249.236v-55.218h11.26v21.733H59.28v-21.733h11.261v55.218H59.28v-24.144H37.216v24.144H25.956z"/>
	<path fill="#FFFFFF" d="M82.182,249.236v-55.218h41.352v9.341H93.442v12.242h27.999v9.303H93.442v15.029h31.157v9.303H82.182z"/>
	<path fill="#FFFFFF" d="M134.186,249.236v-55.218h23.7c5.959,0,10.29,0.496,12.991,1.488c2.701,0.992,4.863,2.756,6.486,5.292
		c1.623,2.537,2.435,5.437,2.435,8.701c0,4.143-1.23,7.565-3.69,10.264s-6.138,4.401-11.032,5.104
		c2.436,1.407,4.444,2.951,6.03,4.633c1.585,1.683,3.722,4.67,6.41,8.964l6.81,10.772h-13.467l-8.142-12.015
		c-2.891-4.294-4.869-7-5.935-8.117c-1.065-1.117-2.193-1.883-3.386-2.297c-1.192-0.415-3.081-0.622-5.668-0.622h-2.282v23.051
		H134.186z M145.446,217.371h8.331c5.401,0,8.774-0.226,10.119-0.678c1.344-0.452,2.396-1.23,3.157-2.335
		c0.761-1.104,1.142-2.486,1.142-4.143c0-1.858-0.501-3.358-1.503-4.501s-2.416-1.865-4.241-2.166
		c-0.913-0.125-3.652-0.188-8.218-0.188h-8.787V217.371z"/>
	<path fill="#FFFFFF" d="M190.411,249.236v-55.218h41.353v9.341h-30.092v12.242h27.999v9.303h-27.999v15.029h31.156v9.303H190.411z"
		/>
</g>
<g>
	<g>
		<path fill="#FFFFFF" d="M71.955,507.683c0.588,0,1.008,0.336,1.26,1.008c1.728,3.48,3.036,6.123,3.924,7.929
			c0.888,1.807,1.362,2.787,1.422,2.943c0.024,0.071,0.036,0.132,0.036,0.18v0.09c-0.048,0.3-0.252,0.45-0.612,0.45h-1.332
			c-0.576,0-1.026-0.438-1.35-1.314c-1.008-2.039-1.8-3.636-2.376-4.787c-0.576-1.152-0.948-1.884-1.116-2.196
			c-0.204-0.252-0.372-0.378-0.504-0.378h-0.162c-0.324,0-0.726,0.576-1.206,1.728l-3.168,6.391
			c-0.264,0.372-0.594,0.558-0.99,0.558h-1.314c-0.288,0-0.486-0.108-0.594-0.324l-0.018-0.126v-0.09
			c0-0.18,0.234-0.714,0.702-1.602c1.38-2.82,2.478-5.05,3.294-6.688c0.816-1.638,1.356-2.715,1.62-3.23
			c0.228-0.36,0.57-0.54,1.026-0.54H71.955z"/>
		<path fill="#FFFFFF" d="M75.366,507.907c0.138-0.15,0.339-0.225,0.603-0.225H89c0.24,0,0.435,0.068,0.585,0.207
			c0.15,0.138,0.225,0.339,0.225,0.603v0.918c0,0.229-0.069,0.42-0.207,0.576c-0.138,0.156-0.339,0.234-0.603,0.234h-3.636
			c-0.852,0-1.332,0.161-1.44,0.485c-0.06,0.097-0.102,0.24-0.126,0.433c-0.024,0.191-0.036,0.426-0.036,0.701v7.633
			c0,0.228-0.069,0.42-0.207,0.575c-0.138,0.156-0.339,0.234-0.603,0.234h-0.936c-0.24,0-0.435-0.065-0.585-0.198
			c-0.15-0.132-0.225-0.336-0.225-0.611v-7.633c0-0.852-0.156-1.332-0.468-1.439c-0.192-0.12-0.57-0.18-1.134-0.18h-3.636
			c-0.228,0-0.42-0.069-0.576-0.207c-0.156-0.139-0.234-0.339-0.234-0.604v-0.918C75.159,508.252,75.228,508.058,75.366,507.907z"/>
		<path fill="#FFFFFF" d="M94.689,508.618c0.756,0.828,1.326,1.458,1.71,1.89c0.384,0.433,0.6,0.666,0.648,0.702
			c0.216,0.145,0.408,0.216,0.576,0.216c0.372,0,0.852-0.384,1.44-1.151c1.02-1.164,1.758-1.956,2.214-2.376
			c0.264-0.145,0.54-0.216,0.828-0.216h1.872c0.384,0,0.576,0.132,0.576,0.396v0.019c0,0.228-0.324,0.666-0.972,1.313l-3.546,3.996
			c-0.12,0.229-0.18,0.432-0.18,0.612c0,0.336,0.36,0.852,1.08,1.548c0.048,0.084,0.66,0.78,1.836,2.088
			c1.188,1.32,1.782,2.01,1.782,2.07v0.144v0.018c0,0.265-0.192,0.396-0.576,0.396h-1.872c-0.588,0-1.123-0.324-1.602-0.972
			c-1.284-1.452-2.094-2.334-2.43-2.646c-0.168-0.084-0.324-0.126-0.468-0.126c-0.336,0-0.774,0.349-1.314,1.044
			c-0.625,0.708-1.128,1.267-1.512,1.674c-0.384,0.408-0.642,0.673-0.774,0.792c-0.276,0.156-0.558,0.234-0.846,0.234h-1.89
			c-0.396,0-0.594-0.138-0.594-0.414c0-0.204,0.312-0.624,0.936-1.26c1.128-1.248,1.989-2.208,2.583-2.88
			c0.594-0.672,0.939-1.074,1.035-1.206c0.06-0.096,0.099-0.187,0.117-0.271s0.027-0.162,0.027-0.233v-0.072
			c0-0.348-0.336-0.852-1.008-1.512c-0.072-0.097-0.402-0.469-0.99-1.116c-0.588-0.648-1.44-1.59-2.556-2.826
			c-0.06-0.096-0.099-0.18-0.117-0.252s-0.027-0.138-0.027-0.198c0-0.204,0.186-0.324,0.558-0.359h1.926
			C93.735,507.683,94.245,507.994,94.689,508.618z"/>
		<path fill="#FFFFFF" d="M105.642,507.907c0.138-0.15,0.339-0.225,0.603-0.225h10.422c1.572,0,2.658,0.756,3.258,2.268
			c0.108,0.36,0.162,0.732,0.162,1.116v0.126c0,0.468-0.081,0.909-0.243,1.323c-0.162,0.414-0.394,0.773-0.693,1.08
			c-0.3,0.306-0.672,0.546-1.116,0.72c-0.444,0.174-0.942,0.261-1.494,0.261h-6.552c-0.552,0-0.828-0.312-0.828-0.936v-0.666
			c0-0.624,0.276-0.937,0.828-0.937h5.094c1.128,0,1.764-0.102,1.908-0.306c0.204-0.145,0.306-0.348,0.306-0.612
			c0-0.384-0.222-0.647-0.666-0.792c-0.144-0.072-0.612-0.107-1.404-0.107h-5.634c-0.853,0-1.332,0.161-1.44,0.485
			c-0.096,0.204-0.144,0.408-0.144,0.612c-0.012,2.063-0.018,3.777-0.018,5.139c0,1.362,0,2.392,0,3.087
			c0,0.192-0.072,0.363-0.216,0.514c-0.144,0.149-0.342,0.225-0.594,0.225h-0.936c-0.24,0-0.435-0.069-0.585-0.207
			c-0.15-0.138-0.225-0.339-0.225-0.603v-10.98C105.435,508.252,105.503,508.058,105.642,507.907z"/>
		<path fill="#FFFFFF" d="M135.396,520.05c-0.138,0.155-0.339,0.232-0.603,0.232h-7.722c-1.872,0-3.456-0.75-4.752-2.25
			c-0.912-1.14-1.368-2.43-1.368-3.87v-0.36c0-1.871,0.75-3.455,2.25-4.752c1.14-0.911,2.43-1.367,3.87-1.367h7.722
			c0.239,0,0.435,0.068,0.585,0.207c0.149,0.138,0.225,0.339,0.225,0.603v0.918c0,0.229-0.069,0.42-0.207,0.576
			s-0.339,0.234-0.603,0.234h-6.138c-1.5,0-2.4,0.107-2.7,0.324c-0.384,0.108-0.864,0.445-1.44,1.011
			c-0.648,0.817-0.972,1.63-0.972,2.436c0,1.07,0.504,2.045,1.512,2.923c0.66,0.554,1.65,0.83,2.97,0.83h6.768
			c0.228,0,0.42,0.068,0.576,0.206c0.155,0.137,0.233,0.336,0.233,0.599v0.929C135.603,519.704,135.533,519.896,135.396,520.05z"/>
	</g>
	<g>
		<path fill="#FFFFFF" d="M156.188,520.05c-0.139,0.155-0.34,0.232-0.604,0.232h-7.722c-1.872,0-3.456-0.75-4.752-2.25
			c-0.912-1.14-1.368-2.43-1.368-3.87v-0.36c0-1.871,0.75-3.455,2.25-4.752c1.14-0.911,2.43-1.367,3.87-1.367h7.722
			c0.24,0,0.435,0.068,0.585,0.207c0.15,0.138,0.226,0.339,0.226,0.603v0.918c0,0.229-0.069,0.42-0.207,0.576
			c-0.139,0.156-0.34,0.234-0.604,0.234h-6.138c-1.5,0-2.4,0.107-2.7,0.324c-0.384,0.108-0.864,0.445-1.439,1.011
			c-0.648,0.817-0.973,1.63-0.973,2.436c0,1.07,0.504,2.045,1.512,2.923c0.66,0.554,1.65,0.83,2.971,0.83h6.768
			c0.228,0,0.42,0.068,0.576,0.206c0.156,0.137,0.234,0.336,0.234,0.599v0.929C156.396,519.704,156.326,519.896,156.188,520.05z"/>
		<path fill="#FFFFFF" d="M166.899,507.683c2.079,0,3.784,0.906,5.118,2.718c0.673,1.068,1.009,2.184,1.009,3.348v0.468
			c0,1.944-0.846,3.582-2.537,4.914c-1.104,0.769-2.299,1.152-3.582,1.152h-3.528c-1.872,0-3.456-0.75-4.752-2.25
			c-0.912-1.14-1.368-2.43-1.368-3.87v-0.36c0-1.871,0.751-3.455,2.253-4.752c1.141-0.911,2.433-1.367,3.874-1.367H166.899z
			 M159.851,513.991c0,1.07,0.504,2.045,1.512,2.923c0.66,0.554,1.65,0.83,2.971,0.83h0.954c1.535,0,2.453-0.114,2.754-0.343
			c0.828-0.349,1.481-0.956,1.962-1.822c0.264-0.541,0.396-1.082,0.396-1.624c0-1.106-0.534-2.099-1.602-2.978
			c-0.637-0.505-1.614-0.757-2.935-0.757h-0.899c-1.5,0-2.4,0.107-2.7,0.324c-0.384,0.108-0.864,0.445-1.439,1.011
			C160.175,512.373,159.851,513.186,159.851,513.991z"/>
		<path fill="#FFFFFF" d="M174.08,507.916c0.138-0.155,0.339-0.233,0.603-0.233h1.044c0.612,0,1.08,0.378,1.404,1.134l4.068,7.218
			c0.228,0.324,0.462,0.486,0.702,0.486c0.323,0,0.684-0.408,1.08-1.225l3.995-7.073c0.288-0.36,0.624-0.54,1.009-0.54h1.115
			c0.229,0,0.42,0.068,0.576,0.207c0.156,0.138,0.234,0.339,0.234,0.603v10.98c0,0.228-0.069,0.42-0.207,0.575
			c-0.138,0.156-0.339,0.234-0.604,0.234h-0.953c-0.229,0-0.418-0.069-0.567-0.207c-0.15-0.138-0.225-0.339-0.225-0.603v-2.7
			c0-1.356-0.091-2.034-0.271-2.034c0-0.048-0.054-0.084-0.162-0.108h-0.054c-0.324,0-0.732,0.498-1.224,1.494l-2.089,3.654
			c-0.252,0.336-0.594,0.504-1.025,0.504h-1.278c-0.588,0-1.026-0.33-1.313-0.99l-2.395-4.193c-0.252-0.313-0.486-0.469-0.702-0.469
			c-0.264,0.072-0.396,0.48-0.396,1.225c-0.013,0.023-0.019,0.33-0.019,0.918v2.7c0,0.24-0.069,0.435-0.207,0.585
			c-0.138,0.149-0.339,0.225-0.603,0.225h-0.937c-0.228,0-0.42-0.069-0.575-0.207c-0.156-0.138-0.234-0.339-0.234-0.603v-10.98
			C173.873,508.265,173.942,508.072,174.08,507.916z"/>
	</g>
	<g>
		<circle fill="#FFFFFF" cx="139.202" cy="519.064" r="1.25"/>
	</g>
</g>
</svg>
